<?xml version="1.0" encoding="utf-8"?>
<!-- Generator: Adobe Illustrator 19.2.1, SVG Export Plug-In . SVG Version: 6.00 Build 0)  -->
<svg version="1.1" id="layer" xmlns="http://www.w3.org/2000/svg" xmlns:xlink="http://www.w3.org/1999/xlink" x="0px" y="0px"
	 viewBox="0 0 652 652" style="enable-background:new 0 0 652 652;" xml:space="preserve">
<style type="text/css">
	.st0{fill:#DC291E;}
</style>
<g>
	<path class="st0" d="M92.9,250.8c-4-4.3-8.7-7.2-13.4-9.4s-10.1-3.3-15.5-3.3c-11.9,0-22,4.7-30.3,13.7c-8.3,9.4-12.6,21-12.6,35.4
		c0,13.7,4.3,25.3,13,34.7s18.8,14.1,30.7,14.1c5.4,0,10.1-1.1,14.8-2.9c4.3-1.8,9-5.1,13.4-9.4v9.8h23.1v-92.8H92.9
		C92.9,240.7,92.9,250.8,92.9,250.8z M86.8,306.8c-4.7,5.1-10.8,7.6-18.1,7.6c-6.9,0-13-2.5-17.7-7.9c-4.7-5.1-7.2-11.9-7.2-19.9
		s2.5-14.4,7.2-19.5s10.5-7.6,17.7-7.6s13.4,2.5,18.1,7.6c4.7,5.1,6.1,10.8,6.1,18.8C93.3,294.2,91.9,301.8,86.8,306.8z
		 M248.6,250.8c-4-4.3-8.7-7.2-13.4-9.4c-4.7-2.2-10.1-3.3-15.5-3.3c-11.9,0-22,4.7-30.3,13.7c-8.3,9-12.6,21-12.6,35
		c0,13.7,4.3,25.3,13,34.7c8.7,9.4,18.8,14.1,30.7,14.1c5.4,0,10.1-1.1,14.8-2.9c4.3-1.8,9-5.1,13.4-9.4v9.8h23.1v-92.5h-23.1V250.8
		z M242.5,306.8c-4.7,5.1-10.8,7.6-18.1,7.6c-6.9,0-13-2.5-17.7-7.9c-4.7-5.1-7.2-11.9-7.2-19.9s2.5-14.4,7.2-19.5
		c4.7-5.1,10.5-7.6,17.7-7.6s13.4,2.5,18.1,7.6c4.7,5.1,6.1,10.8,6.1,18.8C249,294.2,247.5,301.8,242.5,306.8z M410.8,242.9
		c-5.1-3.3-10.8-4.7-17.3-4.7s-12.3,1.4-17.3,4.3c-5.4,2.9-9.8,6.9-13.4,12.6c-2.9-5.4-6.5-9.8-11.2-12.6c-4.7-2.9-9.8-4.3-15.5-4.3
		s-10.8,1.1-15.9,3.3c-4.7,2.2-9,5.4-13,9.8v-10.8H284v92.8h23.1V292c0-9,0.7-15.5,2.2-19.5s4-7.2,7.2-9.8c3.3-2.2,6.5-3.6,10.5-3.6
		c3.6,0,6.5,1.1,8.7,2.9c2.5,1.8,4.3,4.7,5.4,8.3c1.1,3.6,1.8,9.8,1.8,18.1v44.8H366v-41.9c0-8.7,0.7-15.2,2.2-19.1s4-7.2,6.9-9.4
		c3.3-2.2,6.9-3.3,10.8-3.3c5.1,0,9,1.8,11.6,5.4c2.5,3.6,4,10.8,4,21.3v47h23.1V279c0-11.2-1.1-19.1-3.3-24.2
		C419.5,250.1,415.9,246.1,410.8,242.9z M505.5,306.1c-6.1,6.1-13.7,9.4-22,9.4c-7.2,0-13-2.2-17.7-5.8c-4.7-4-7.6-9.4-8.7-15.9
		h74.1v-4.3c0-15.2-4.7-27.5-13.7-36.8c-9-9.4-21-14.1-35.4-14.1c-13.7,0-24.9,4.7-34,14.1c-9,9.4-13.7,21-13.7,35.4
		c0,13.7,4.7,25.3,13.7,34.7c9,9,21,13.7,35,13.7c9.4,0,17.3-1.8,24.2-5.1c6.9-3.3,12.6-8.3,17.3-15.5L505.5,306.1z M466.8,263.5
		c4.7-3.6,10.5-5.4,17-5.4c5.8,0,11.2,1.4,15.5,4.7c4.3,3.3,7.6,7.2,9,12.3h-50.2C460.7,269.6,463.6,265.6,466.8,263.5z M586,284.4
		l31.4-43.7h-26.4L573,266l-18.1-25.3h-26.7l31.4,44.1l-35,48.8H551l21.7-30.3l21.7,30.3H621L586,284.4z M171.7,237.8
		c-4.3,0-7.9,0.7-11.2,2.5c-3.3,1.4-6.5,4.3-10.5,8.7v-7.9h-22v92.8h23.1v-48.4c0-17.7,4.7-26.4,16.6-26.4c2.2,0,4,0.4,6.1,1.1
		c3.6-6.5,8.3-12.3,13-17.7C181.8,239.3,176.7,237.8,171.7,237.8z"/>
	<g>
		<path class="st0" d="M54.3,393.9h-2.2l-1.1-2.2c-2.2,1.8-4.7,2.9-7.2,2.9c-3.3,0-6.1-1.1-7.9-2.9c-2.5-2.2-3.6-5.8-3.6-10.5
			c0-9,3.6-13.4,11.2-13.4c2.5,0,5.1,0.7,7.6,2.5c-0.4-0.7-0.4-1.4-0.4-2.2V357h3.6V393.9z M50.3,388.8v-15.5
			c-1.8-1.1-3.3-1.4-3.6-1.4c-1.4-0.4-2.5-0.7-3.6-0.7c-2.5,0-4.3,0.7-5.8,2.5c-1.1,1.8-1.8,4.3-1.8,7.9c0,6.9,2.5,10.5,7.9,10.5
			C45.6,391.7,47.8,390.6,50.3,388.8z"/>
		<path class="st0" d="M82.1,382.3H63.3c0,3.3,0.7,5.4,1.8,6.9c1.1,1.4,3.3,2.2,6.1,2.2c3.6,0,5.8-1.1,7.2-3.6l3.3,1.4
			c-1.8,3.6-5.1,5.4-10.5,5.4c-4,0-7.2-1.1-9-3.3c-1.8-2.2-2.9-5.4-2.9-10.1c0-4.3,0.7-7.6,2.5-9.8c1.8-2.2,5.1-3.6,9.4-3.6
			s7.2,1.4,9,4c1.1,1.8,1.8,5.1,1.8,9.4C82.1,381.2,82.1,382.3,82.1,382.3z M78.5,379.1c0-2.9-0.4-4.7-1.4-6.1
			c-1.1-1.4-2.9-2.2-5.4-2.2c-2.5,0-4.3,0.7-5.8,1.8c-1.4,1.4-2.2,3.6-2.2,6.5H78.5z"/>
		<path class="st0" d="M96.5,394.2h-1.8c-3.6,0-5.8-2.2-5.8-6.1v-27.8h-4V357h7.6v31.1c0,1.8,0.7,2.9,2.2,2.9h1.8V394.2z"/>
		<path class="st0" d="M109.9,394.2h-1.8c-3.6,0-5.4-2.2-5.4-6.1v-14.8c0-0.4,0-1.1,0.4-1.8h-4.3v-3.3h7.6v19.5
			c0,1.8,0.7,2.9,1.8,2.9h1.8C109.9,390.6,109.9,394.2,109.9,394.2z M106.3,361.4c0,0.4,0,0.4-0.4,0.4h-4c-0.4,0-0.4,0-0.4-0.4v-3.6
			c0-0.4,0-0.4,0.4-0.4h4c0.4,0,0.4,0,0.4,0.4V361.4z"/>
		<path class="st0" d="M134.8,368.6l-9.4,25.3h-4.3l-9.4-25.3h4l6.9,18.8c0.4,0.7,0.7,2.2,0.7,4c0-0.7,0.4-2.2,1.1-4l6.9-18.8H134.8
			z"/>
		<path class="st0" d="M159.8,382.3H141c0,3.3,0.7,5.4,1.8,6.9s3.3,2.2,6.1,2.2c3.6,0,5.8-1.1,7.2-3.6l3.3,1.4
			c-1.8,3.6-5.1,5.4-10.5,5.4c-4,0-7.2-1.1-9-3.3c-1.8-2.2-2.9-5.4-2.9-10.1c0-4.3,0.7-7.6,2.5-9.8c1.8-2.2,5.1-3.6,9.4-3.6
			s7.2,1.4,9,4c1.1,1.8,1.8,5.1,1.8,9.4V382.3z M155.8,379.1c0-2.9-0.4-4.7-1.4-6.1c-1.1-1.4-2.9-2.2-5.4-2.2
			c-2.5,0-4.3,0.7-5.8,1.8c-1.4,1.4-2.2,3.6-2.2,6.5H155.8z"/>
		<path class="st0" d="M177.8,371.5c-0.7,0-1.4-0.4-2.2-0.4c-2.2,0-4,0.7-5.4,2.2l-1.4,1.1v19.1h-3.6v-25.3h2.9l0.7,2.5l2.2-1.8
			c1.4-1.1,2.9-1.4,4.7-1.4c0.7,0,1.4,0,2.2,0.4C177.8,367.9,177.8,371.5,177.8,371.5z"/>
		<path class="st0" d="M203.8,368.6l-11.9,31.8c-0.7,1.8-1.4,2.9-2.5,3.6c-1.1,0.7-2.9,1.1-5.1,1.1h-3.3v-3.3h3.3
			c1.4,0,2.5-0.4,2.9-0.7s1.1-1.1,1.4-2.5l1.8-4.3l-9.8-26h4l6.9,18.8c0,0.4,0.4,1.4,0.7,3.3c0.4-1.4,0.7-2.5,0.7-3.3l6.9-18.8
			L203.8,368.6L203.8,368.6z"/>
		<path class="st0" d="M240.7,393.9h-2.9l-0.7-2.9l-1.8,1.1c-2.5,1.8-4.7,2.5-6.5,2.5c-2.9,0-5.1-0.7-6.5-2.2
			c-1.8-1.8-2.5-4.3-2.5-7.6v-16.3h3.6v16.3c0,4.7,1.8,6.9,5.4,6.9c1.8,0,3.6-0.7,5.8-2.2l2.5-1.8v-19.1h3.6L240.7,393.9
			L240.7,393.9z"/>
		<path class="st0" d="M268.5,393.9h-3.6v-16.3c0-4.3-1.8-6.9-5.4-6.9c-1.8,0-3.6,0.7-5.8,2.2l-2.5,1.8v19.1h-3.6v-25.3h2.9l0.7,2.9
			l1.8-1.1c2.5-1.8,4.7-2.5,6.5-2.5c2.9,0,4.7,0.7,6.5,2.2c1.8,1.8,2.5,4,2.5,7.6C268.5,377.6,268.5,393.9,268.5,393.9z"/>
		<path class="st0" d="M283.3,394.2h-1.8c-3.6,0-5.8-2.2-5.8-6.1v-27.8h-4V357h7.6v31.1c0,1.8,0.7,2.9,2.2,2.9h1.8V394.2z"/>
		<path class="st0" d="M297,394.2h-1.8c-3.6,0-5.4-2.2-5.4-6.1v-14.8c0-0.4,0-1.1,0.4-1.8h-4.3v-3.3h7.6v19.5c0,1.8,0.7,2.9,1.8,2.9
			h1.8V394.2z M293.1,361.4C293.1,361.7,293.1,361.7,293.1,361.4l-4.3,0.4c-0.4,0-0.4,0-0.4-0.4v-3.6c0-0.4,0-0.4,0.4-0.4h4
			c0.4,0,0.4,0,0.4,0.4V361.4z"/>
		<path class="st0" d="M336.4,393.9h-3.6v-16.3c0-4.7-1.4-6.9-4-6.9c-1.8,0-3.6,0.7-6.1,2.5l-1.8,1.1c0,0.7,0.4,1.8,0.4,3.3v16.3
			h-3.6v-16.3c0-4.7-1.4-6.9-4.3-6.9c-1.4,0-3.6,0.7-5.8,2.5l-2.2,1.4v19.1h-3.6v-25.3h2.9l0.7,2.9l1.8-1.1c2.5-1.8,4.7-2.5,6.1-2.5
			c3.3,0,5.4,1.4,6.9,4l1.8-1.4c1.4-1.1,2.5-1.8,3.3-1.8c1.1-0.4,2.5-0.7,4-0.7c5.1,0,7.9,3.3,7.9,10.1v15.9
			C337.1,393.9,336.4,393.9,336.4,393.9z"/>
		<path class="st0" d="M351.9,394.2h-1.8c-3.6,0-5.4-2.2-5.4-6.1v-14.8c0-0.4,0-1.1,0.4-1.8h-4.3v-3.3h7.6v19.5
			c0,1.8,0.7,2.9,1.8,2.9h1.8V394.2z M348.3,361.4C348.3,361.7,348.3,361.7,348.3,361.4l-4.3,0.4c-0.4,0-0.4,0-0.4-0.4v-3.6
			c0-0.4,0-0.4,0.4-0.4h4c0.4,0,0.4,0,0.4,0.4V361.4z"/>
		<path class="st0" d="M372.9,392.4c-1.8,1.4-4.3,2.2-7.6,2.2c-4.3,0-6.5-2.2-6.5-6.9v-14.1c0-0.4,0-1.1,0.4-1.8h-4.7v-3.3h4.3v-8.7
			l3.6-1.1v9.8h9l-1.1,3.3h-7.9v15.9c0,1.4,0.4,2.5,1.1,3.3c0.7,0.7,1.8,0.7,3.3,0.7s2.5-0.4,4-1.4L372.9,392.4z"/>
		<path class="st0" d="M398.2,382.3h-18.8c0,3.3,0.7,5.4,1.8,6.9c1.1,1.4,3.3,2.2,6.1,2.2c3.6,0,5.8-1.1,7.2-3.6l3.3,1.4
			c-1.8,3.6-5.1,5.4-10.5,5.4c-4,0-7.2-1.1-9-3.3c-1.8-2.2-2.9-5.4-2.9-10.1c0-4.3,0.7-7.6,2.5-9.8c1.8-2.2,5.1-3.6,9.4-3.6
			c4.3,0,7.2,1.4,9,4c1.1,1.8,1.8,5.1,1.8,9.4C398.2,381.2,398.2,382.3,398.2,382.3z M394.2,379.1c0-2.9-0.4-4.7-1.4-6.1
			s-2.9-2.2-5.4-2.2s-4.3,0.7-5.8,1.8c-1.4,1.4-2.2,3.6-2.2,6.5H394.2z"/>
		<path class="st0" d="M424.9,393.9h-2.2l-1.1-2.2c-2.2,1.8-4.7,2.9-7.2,2.9c-3.3,0-6.1-1.1-7.9-2.9c-2.5-2.2-3.6-5.8-3.6-10.5
			c0-9,3.6-13.4,11.2-13.4c2.5,0,5.1,0.7,7.6,2.5c-0.4-0.7-0.4-1.4-0.4-2.2V357h3.6V393.9z M421.3,388.8v-15.5
			c-1.8-1.1-3.3-1.4-3.6-1.4c-1.4-0.4-2.5-0.7-3.6-0.7c-2.5,0-4.3,0.7-5.8,2.5c-1.1,1.8-1.8,4.3-1.8,7.9c0,6.9,2.5,10.5,7.9,10.5
			C416.2,391.7,418.4,390.6,421.3,388.8z"/>
	</g>
</g>
</svg>
